M48
;DRILL file {Pcbnew (2012-01-19 BZR 3256)-stable} date 09/06/2012 05:25:29
;FORMAT={-:-/ absolute / inch / decimal}
FMAT,2
INCH,TZ
T1C0.015
T2C0.032
T3C0.035
%
G90
G05
M72
T1
X1.156Y-4.291
X1.176Y-5.581
X1.176Y-5.758
X1.235Y-4.508
X1.244Y-4.104
X1.254Y-4.813
X1.284Y-5.305
X1.304Y-4.971
X1.333Y-5.581
X1.353Y-6.053
X1.372Y-5.817
X1.431Y-4.744
X1.451Y-4.823
X1.481Y-4.744
X1.491Y-4.360
X1.491Y-4.656
X1.500Y-4.823
X1.500Y-4.902
X1.510Y-4.980
X1.530Y-4.104
X1.530Y-6.053
X1.540Y-4.862
X1.550Y-4.941
X1.550Y-5.748
X1.579Y-4.577
X1.609Y-6.417
X1.628Y-4.656
X1.628Y-5.404
X1.628Y-5.472
X1.648Y-6.417
X1.707Y-4.163
X1.707Y-5.620
X1.707Y-5.679
X1.707Y-5.896
X1.707Y-6.093
X1.766Y-6.309
X1.786Y-4.419
X1.786Y-4.656
X1.796Y-5.660
X1.815Y-4.498
X1.845Y-5.974
X1.855Y-5.522
X1.855Y-5.660
X1.865Y-4.537
X1.865Y-5.472
X1.884Y-4.744
X1.884Y-6.417
X1.884Y-5.561
X1.924Y-4.626
X1.924Y-4.705
X1.924Y-4.862
X1.933Y-5.581
X1.983Y-5.620
X2.002Y-4.754
X2.002Y-4.980
X2.002Y-6.122
X2.012Y-5.472
X2.012Y-6.368
X2.022Y-5.768
X2.022Y-5.955
X2.042Y-6.329
X2.042Y-5.236
X2.061Y-4.301
X2.061Y-4.882
X2.061Y-4.941
X2.071Y-5.768
X2.071Y-6.289
X2.081Y-6.417
X2.120Y-5.768
X2.120Y-6.161
X2.140Y-4.803
X2.170Y-5.768
X2.170Y-6.112
X2.179Y-5.374
X2.199Y-4.439
X2.219Y-5.207
X2.219Y-6.073
X2.258Y-4.163
X2.278Y-4.311
X2.278Y-6.417
X2.307Y-5.472
X2.327Y-4.911
X2.337Y-4.252
X2.367Y-4.705
X2.386Y-5.266
X2.396Y-4.488
X2.396Y-5.955
X2.406Y-4.439
X2.455Y-5.118
X2.475Y-5.532
X2.475Y-6.417
X2.485Y-4.626
X2.494Y-6.230
X2.534Y-6.073
X2.544Y-4.134
X2.554Y-5.679
X2.563Y-4.390
X2.573Y-5.974
X2.583Y-5.886
X2.593Y-5.807
X2.603Y-4.222
X2.622Y-4.784
X2.622Y-5.847
X2.632Y-6.417
X2.642Y-4.311
X2.642Y-5.925
X2.662Y-4.567
X2.701Y-5.039
X2.711Y-6.417
X2.721Y-5.423
X2.731Y-5.532
X2.731Y-5.689
X2.740Y-5.226
X2.750Y-6.034
X2.760Y-6.211
X2.780Y-4.439
X2.780Y-5.423
X2.780Y-5.945
X2.780Y-6.289
X2.800Y-5.187
X2.800Y-5.561
X2.800Y-6.408
X2.809Y-4.134
X2.829Y-5.886
X2.839Y-4.567
X2.839Y-5.345
X2.839Y-6.329
X2.849Y-4.222
X2.888Y-5.039
X2.888Y-6.034
X2.898Y-4.724
X2.947Y-5.827
X2.957Y-4.518
X2.967Y-4.833
X2.986Y-6.417
X2.986Y-5.522
X2.986Y-6.260
X3.016Y-5.098
X3.026Y-5.345
X3.026Y-5.925
X3.036Y-6.161
X3.055Y-4.390
X3.075Y-6.201
X3.105Y-4.085
X3.105Y-4.784
X3.105Y-5.748
X3.144Y-4.459
X3.144Y-5.502
X3.144Y-6.191
X3.183Y-5.335
X3.183Y-6.221
X3.203Y-4.291
X3.223Y-4.882
X3.223Y-5.955
X3.233Y-4.705
X3.233Y-6.211
X3.242Y-4.951
X3.242Y-5.108
X3.242Y-6.161
X3.282Y-4.380
X3.282Y-5.413
X3.321Y-4.980
X3.321Y-6.043
X3.341Y-4.705
X3.341Y-5.069
X3.351Y-4.626
X3.351Y-4.931
X3.370Y-5.246
X3.380Y-5.374
X3.390Y-6.260
X3.400Y-4.242
X3.400Y-6.004
X3.420Y-5.295
X3.429Y-6.073
X3.449Y-4.341
X3.459Y-4.252
X3.459Y-5.256
X3.459Y-5.669
X3.459Y-5.829
X3.459Y-6.427
X3.469Y-4.626
X3.479Y-4.774
X3.479Y-6.073
X3.489Y-6.191
X3.498Y-4.833
X3.498Y-4.882
X3.498Y-5.108
X3.508Y-4.734
X3.508Y-4.941
X3.508Y-5.876
X3.518Y-4.419
X3.518Y-4.518
X3.528Y-6.220
X3.538Y-5.453
X3.538Y-5.738
X3.546Y-5.581
X3.577Y-6.211
X3.587Y-6.260
X3.597Y-6.309
X3.617Y-4.085
X3.626Y-6.102
X3.636Y-4.459
X3.636Y-5.108
X3.636Y-5.502
X3.646Y-5.935
X3.656Y-6.427
X3.664Y-4.219
X3.666Y-6.250
X3.676Y-6.152
X3.695Y-6.398
X3.695Y-5.413
X3.705Y-5.581
X3.705Y-5.709
X3.705Y-5.758
X3.705Y-5.807
X3.715Y-4.380
X3.715Y-5.630
X3.715Y-6.024
X3.725Y-4.980
X3.734Y-5.374
X3.744Y-5.669
X3.784Y-4.980
X3.794Y-4.616
X3.794Y-5.030
X3.794Y-5.374
X3.794Y-6.024
X3.794Y-6.122
X3.794Y-6.417
X3.823Y-5.256
X3.833Y-4.754
X3.833Y-5.847
X3.843Y-4.360
X3.843Y-5.030
X3.843Y-6.024
X3.863Y-6.112
X3.872Y-5.413
X3.872Y-5.817
X3.892Y-4.252
X3.892Y-4.331
X3.892Y-6.329
X3.902Y-5.374
X3.922Y-5.797
X3.941Y-4.242
X3.941Y-4.370
X3.941Y-6.093
X3.951Y-5.098
X3.951Y-5.335
X3.963Y-6.043
X3.971Y-6.427
X3.991Y-4.596
X4.000Y-5.384
X4.010Y-6.034
X4.020Y-5.295
X4.040Y-5.000
X4.050Y-4.764
X4.050Y-5.748
X4.050Y-6.073
X4.059Y-4.291
X4.069Y-4.380
X4.079Y-5.266
X4.089Y-6.024
X4.089Y-6.171
X4.089Y-6.280
X4.099Y-5.079
X4.099Y-5.216
X4.128Y-4.085
X4.138Y-5.502
X4.138Y-5.915
X4.168Y-6.417
X4.178Y-4.311
X4.178Y-4.380
X4.178Y-5.187
X4.197Y-5.935
X4.237Y-5.974
X4.256Y-5.620
X4.256Y-5.669
X4.256Y-5.768
X4.266Y-4.252
X4.266Y-5.404
X4.286Y-6.161
X4.296Y-5.059
X4.296Y-5.502
X4.325Y-4.173
X4.345Y-4.734
X4.345Y-6.152
X4.355Y-5.463
X4.374Y-5.640
X4.404Y-6.417
X4.414Y-5.709
X4.453Y-5.847
X4.453Y-5.945
X4.461Y-4.575
X4.463Y-4.626
X4.483Y-6.427
X4.492Y-5.807
X4.542Y-4.508
X4.542Y-4.577
X4.581Y-4.646
X4.650Y-5.945
X4.660Y-5.335
X4.670Y-6.063
X4.689Y-5.561
X4.699Y-5.246
X4.778Y-4.173
X4.817Y-5.551
X4.837Y-4.764
X4.867Y-5.295
X4.867Y-5.787
X4.876Y-4.350
T2
X1.166Y-4.606
X1.166Y-4.705
T3
X1.254Y-4.215
X1.254Y-4.388
T0
M30
